<svg width="47" height="46" viewBox="0 0 47 46" fill="none" xmlns="http://www.w3.org/2000/svg">
<path d="M27.2334 21.5221C32.1948 33.802 34.5791 44.4185 32.5588 45.2348C30.5386 46.051 24.8788 36.7578 19.9174 24.4779C14.956 12.198 12.5718 1.58149 14.592 0.765252C16.6123 -0.0509821 22.272 9.24217 27.2334 21.5221Z" fill="#F44C30"/>
<path d="M18.5329 25.0374C22.9015 35.8498 25.1052 45.1555 23.4551 45.8221C21.8051 46.4888 16.9261 38.264 12.5575 27.4516C8.18903 16.6391 5.98529 7.33344 7.63535 6.66677C9.28541 6.00011 14.1644 14.2249 18.5329 25.0374Z" fill="#F44C30"/>
<path d="M10.9642 28.0953C14.5501 36.9706 16.4913 44.5557 15.3 45.037C14.1088 45.5183 10.2361 38.7136 6.65025 29.8382C3.06438 20.9629 1.12317 13.3778 2.31444 12.8965C3.50572 12.4152 7.37836 19.2199 10.9642 28.0953Z" fill="#F44C30"/>
<path d="M4.97083 30.5168C6.70307 34.8042 7.59939 38.4851 6.97281 38.7383C6.34622 38.9914 4.43402 35.721 2.70177 31.4335C0.969527 27.1461 0.0732095 23.4652 0.699791 23.212C1.32637 22.9589 3.23858 26.2293 4.97083 30.5168Z" fill="#F44C30"/>
<path d="M28.6179 20.9628C32.9864 31.7752 37.8655 40 39.5155 39.3333C41.1656 38.6667 38.9618 29.361 34.5933 18.5485C30.2248 7.73608 25.3458 -0.488703 23.6957 0.177965C22.0457 0.844632 24.2494 10.1503 28.6179 20.9628Z" fill="#F44C30"/>
<path d="M36.1866 17.9048C39.7725 26.7801 43.6451 33.5848 44.8364 33.1035C46.0277 32.6222 44.0865 25.0372 40.5006 16.1618C36.9147 7.28647 33.0421 0.481757 31.8508 0.963063C30.6595 1.44437 32.6007 9.02943 36.1866 17.9048Z" fill="#F44C30"/>
<path d="M42.18 15.4833C43.9123 19.7707 45.8245 23.0412 46.4511 22.788C47.0776 22.5349 46.1813 18.854 44.4491 14.5665C42.7168 10.2791 40.8046 7.00862 40.178 7.26178C39.5515 7.51493 40.4478 11.1958 42.18 15.4833Z" fill="#F44C30"/>
</svg>
