<svg version="1.1" id="Layer_1" xmlns="http://www.w3.org/2000/svg" xmlns:xlink="http://www.w3.org/1999/xlink" x="0px" y="0px"
	 width="100%" viewBox="0 0 3000 3000" enable-background="new 0 0 3000 3000" xml:space="preserve">
<path fill="#FFFFFF" opacity="1.000000" stroke="none" 
	d="
M1670.000000,3002.000000 
	C1113.333374,3002.000000 557.666870,3002.000000 2.000224,3002.000000 
	C2.000149,2002.000244 2.000149,1002.000549 2.000075,2.000626 
	C1001.999512,2.000417 2001.999023,2.000417 3001.999023,2.000209 
	C3001.999268,1001.999329 3001.999268,2001.998657 3001.999512,3001.999023 
	C2558.333252,3002.000000 2114.666748,3002.000000 1670.000000,3002.000000 
M1467.071167,1126.073608 
	C1472.354004,1125.440552 1477.637451,1124.812866 1482.919556,1124.173584 
	C1525.454712,1119.024780 1566.719482,1109.050903 1606.020264,1091.667603 
	C1635.672363,1078.552124 1661.721436,1060.666016 1682.779053,1035.589478 
	C1726.825928,983.135620 1748.436890,921.929077 1753.642334,854.487427 
	C1756.684692,815.072021 1752.642822,775.930481 1744.621216,737.322632 
	C1738.667969,708.670349 1730.875122,680.399963 1724.939941,651.744507 
	C1721.038330,632.908081 1717.344971,613.766418 1716.439819,594.625183 
	C1714.482910,553.246765 1722.689087,513.145264 1736.309937,474.171478 
	C1738.786011,467.086304 1742.655029,460.488007 1746.030640,453.348785 
	C1750.312744,454.686981 1753.495483,455.516846 1756.559326,456.664124 
	C1798.116821,472.224548 1838.336914,490.690460 1877.082397,512.338196 
	C1998.205933,580.012207 2097.277832,671.872131 2176.354492,785.574097 
	C2234.898926,869.752808 2277.756348,961.322449 2305.028809,1060.176514 
	C2318.683350,1109.670288 2328.544678,1159.904907 2333.710938,1210.990845 
	C2336.794434,1241.482788 2338.484375,1272.080200 2337.941895,1302.762329 
	C2337.880127,1306.274780 2338.204102,1309.794189 2338.342041,1313.130249 
	C2354.279785,1314.820557 2382.294189,1314.008179 2388.460449,1311.916504 
	C2388.460449,1298.888550 2388.526611,1285.959106 2388.447266,1273.030396 
	C2388.267090,1243.694702 2385.744873,1214.533203 2382.332764,1185.406982 
	C2378.302734,1151.002319 2372.455566,1116.943848 2364.687256,1083.195435 
	C2349.697266,1018.072388 2327.907715,955.357422 2299.756104,894.714539 
	C2254.973145,798.245728 2195.463135,712.011780 2120.905762,636.327820 
	C2098.730957,613.817688 2075.028564,592.698608 2050.968262,572.182556 
	C1994.407715,523.954041 1931.999146,484.406250 1865.554077,451.301208 
	C1803.026733,420.148071 1737.565552,396.914429 1669.602539,380.690338 
	C1605.566406,365.403687 1540.584595,357.692169 1474.837158,356.241241 
	C1440.519165,355.483887 1406.262573,356.727448 1372.022217,359.593475 
	C1339.808838,362.289886 1307.835083,366.568237 1276.137817,372.633484 
	C1187.295776,389.633270 1102.425415,418.205383 1022.273254,460.497955 
	C920.995789,513.937317 832.052307,582.807495 756.867310,669.478882 
	C677.317078,761.182434 617.198181,864.069458 576.947998,978.500610 
	C539.802185,1084.106079 522.456726,1193.057983 523.514893,1304.966553 
	C523.545532,1308.200684 523.866089,1311.432251 524.094910,1315.423584 
	C538.276123,1315.914307 551.710388,1316.185059 565.269836,1315.212769 
	C565.628235,1311.916138 566.035217,1309.965698 566.023621,1308.017578 
	C565.724121,1257.624023 569.843323,1207.575684 578.052734,1157.876709 
	C584.567017,1118.439331 593.798645,1079.622681 605.320190,1041.337769 
	C606.732056,1036.646240 609.218018,1034.060547 613.664246,1032.477051 
	C624.012573,1028.791504 634.253967,1024.806274 644.544250,1020.957275 
	C666.995422,1012.559692 689.390015,1003.846558 713.172058,999.939087 
	C748.128235,994.195679 783.241089,992.807373 818.663452,995.404785 
	C861.002930,998.509399 902.638184,1005.379517 943.247375,1017.432373 
	C987.588867,1030.593140 1031.550537,1045.038818 1075.636230,1059.054932 
	C1150.829468,1082.960815 1226.273682,1105.874146 1304.267822,1119.130981 
	C1335.801880,1124.490967 1367.540283,1128.626587 1399.467041,1129.395874 
	C1421.354370,1129.923340 1443.315918,1127.366943 1467.071167,1126.073608 
M1386.853027,2083.695801 
	C1404.021484,2081.730469 1421.563354,2081.379639 1438.291504,2077.510498 
	C1499.386475,2063.379883 1544.173950,2028.300049 1567.834473,1969.502808 
	C1587.755249,1919.998657 1588.956177,1868.646484 1575.162109,1817.499146 
	C1563.183228,1773.082031 1536.717163,1738.973389 1495.706177,1716.911987 
	C1494.361938,1716.188965 1493.183960,1715.156616 1491.344116,1713.855103 
	C1493.550903,1712.085693 1495.010864,1710.829224 1496.556396,1709.688477 
	C1520.859741,1691.750000 1538.190918,1668.396362 1548.202393,1640.100342 
	C1566.397949,1588.672607 1565.562744,1536.637817 1548.925415,1485.178223 
	C1535.985352,1445.154175 1509.045776,1416.511719 1471.026001,1398.493042 
	C1441.286255,1384.398315 1409.521851,1378.664185 1376.981323,1378.479004 
	C1291.353882,1377.991333 1205.721802,1378.306641 1120.091553,1378.342041 
	C1117.542236,1378.343140 1114.993042,1378.787720 1112.520996,1379.018188 
	C1112.520996,1614.103394 1112.520996,1848.485107 1112.520996,2083.696289 
	C1203.767456,2083.696289 1294.328613,2083.696289 1386.853027,2083.695801 
M1868.916382,1845.698364 
	C1875.547607,1845.698364 1882.178711,1845.698364 1889.054688,1845.698364 
	C1928.797485,1925.348755 1968.299072,2004.515503 2007.442139,2082.963867 
	C2057.116455,2082.963867 2105.528320,2082.963867 2155.616455,2082.963867 
	C2110.980957,1997.040283 2067.000244,1912.377319 2023.175659,1828.015015 
	C2024.183105,1826.822388 2024.522705,1826.191772 2025.049316,1825.844238 
	C2026.155273,1825.114136 2027.337524,1824.489014 2028.526123,1823.896484 
	C2080.651123,1797.909912 2112.884277,1755.654053 2128.106201,1700.212646 
	C2143.214600,1645.184570 2143.224365,1589.540894 2130.676025,1534.088623 
	C2121.500732,1493.540894 2102.530029,1458.006714 2071.416260,1429.728516 
	C2032.520386,1394.377197 1985.609497,1379.102295 1934.112427,1378.557861 
	C1848.819824,1377.656006 1763.510864,1378.306274 1678.208740,1378.341675 
	C1675.655151,1378.342773 1673.101685,1378.781006 1670.543457,1379.015869 
	C1670.543457,1614.068726 1670.543457,1848.458130 1670.543457,2082.952637 
	C1715.319946,2082.952637 1759.418335,2082.952637 1804.370117,2082.952637 
	C1804.370117,2003.704224 1804.370117,1925.196777 1804.370117,1845.698120 
	C1825.789307,1845.698120 1846.363647,1845.698120 1868.916382,1845.698364 
M2738.441162,2078.295410 
	C2732.166992,2057.593018 2725.884766,2036.892700 2719.619629,2016.187622 
	C2687.131592,1908.819214 2654.659668,1801.446167 2622.159180,1694.081665 
	C2593.516602,1599.461182 2564.847412,1504.848633 2536.178223,1410.236206 
	C2533.011475,1399.785767 2529.766357,1389.359253 2526.572266,1378.968994 
	C2476.982666,1378.968994 2428.172852,1378.968994 2378.955322,1378.968994 
	C2309.016846,1610.792114 2239.224365,1842.126343 2169.455566,2073.467529 
	C2168.690430,2076.004395 2168.225830,2078.632812 2167.668945,2081.229004 
	C2167.609619,2081.504639 2167.856445,2081.858154 2167.994141,2082.160400 
	C2168.124023,2082.445312 2168.297607,2082.710449 2168.556396,2083.169678 
	C2212.982178,2083.169678 2257.510742,2083.169678 2302.694092,2083.169678 
	C2316.048828,2035.545288 2329.316650,1988.231201 2342.558594,1941.009521 
	C2415.298584,1941.009521 2487.118408,1941.009521 2559.122314,1941.009521 
	C2572.555420,1988.902222 2585.825928,2036.216064 2599.023682,2083.270996 
	C2601.574707,2083.478760 2602.886719,2083.677979 2604.198730,2083.678711 
	C2646.855469,2083.696289 2689.512207,2083.700439 2732.168945,2083.677002 
	C2734.148926,2083.676025 2736.200195,2083.644287 2738.064697,2083.099365 
	C2738.617432,2082.937744 2738.643066,2080.971680 2738.441162,2078.295410 
M448.087860,1592.812012 
	C430.604401,1521.450439 413.120972,1450.088989 395.632172,1378.705566 
	C347.300873,1378.705566 300.056641,1378.705566 251.379318,1378.705566 
	C315.945709,1613.941162 380.310913,1848.443726 444.754913,2083.233398 
	C494.856537,2083.233398 544.381287,2083.233398 594.749146,2083.233398 
	C659.172974,1848.519775 723.541504,1614.007568 788.109009,1378.770264 
	C741.425598,1378.770264 695.905518,1378.770264 649.472229,1378.770264 
	C607.511414,1549.796875 565.589722,1720.664062 523.668030,1891.531250 
	C521.328735,1889.215820 520.323120,1886.861938 519.719177,1884.409180 
	C509.690552,1843.678345 499.732880,1802.930054 489.717834,1762.195801 
	C475.967651,1706.269775 462.182556,1650.352173 448.087860,1592.812012 
M992.297546,2056.981934 
	C992.157410,1831.451050 992.017334,1605.920044 991.858948,1380.389160 
	C991.858765,1380.106689 991.624268,1379.790527 991.425171,1379.551636 
	C991.216003,1379.300659 990.917664,1379.124023 990.754456,1378.992432 
	C946.509399,1378.992432 902.363892,1378.992432 858.123047,1378.992432 
	C858.123047,1614.035522 858.123047,1848.400757 858.123047,2083.173828 
	C902.930054,2083.173828 947.069031,2083.173828 992.297729,2083.173828 
	C992.297729,2074.783447 992.297729,2066.878906 992.297546,2056.981934 
M1246.772583,2386.239014 
	C1243.320312,2383.802734 1239.868042,2381.366455 1235.770264,2378.474609 
	C1238.234375,2376.872314 1240.071045,2375.541016 1242.030029,2374.424072 
	C1275.691772,2355.229248 1277.612427,2301.015381 1240.002563,2279.926270 
	C1225.726196,2271.921143 1210.428955,2267.984375 1194.177856,2267.895020 
	C1158.878662,2267.701172 1123.578247,2267.704590 1088.278320,2267.702393 
	C1085.779419,2267.702148 1083.280396,2268.317627 1080.876709,2268.634277 
	C1080.876709,2340.566650 1080.876709,2411.662109 1080.876709,2483.020508 
	C1097.980713,2483.020508 1114.400269,2483.020508 1131.675171,2483.020508 
	C1131.675171,2468.365479 1131.675171,2454.437744 1131.675171,2440.510010 
	C1131.675171,2426.635986 1131.675171,2412.762207 1131.675171,2398.868164 
	C1149.491211,2398.868164 1166.184570,2397.449707 1182.534912,2399.212158 
	C1205.110840,2401.645508 1211.390991,2410.083496 1211.804565,2432.890137 
	C1211.991699,2443.210693 1211.700073,2453.556885 1212.345093,2463.846191 
	C1212.751465,2470.329590 1214.490234,2476.729492 1215.589478,2482.930664 
	C1233.042358,2482.930664 1249.094849,2482.930664 1264.902588,2482.930664 
	C1264.353027,2473.847900 1263.734497,2465.589111 1263.381470,2457.319092 
	C1262.870361,2445.349854 1262.760986,2433.360840 1262.093506,2421.401855 
	C1261.367676,2408.396729 1257.306763,2396.630127 1246.772583,2386.239014 
M1896.999878,2267.661865 
	C1855.367554,2267.822266 1813.735229,2267.981689 1772.103027,2268.163574 
	C1771.830322,2268.164795 1771.536011,2268.449707 1771.292969,2268.651855 
	C1771.039062,2268.863037 1770.835449,2269.134521 1770.533813,2269.462402 
	C1770.533813,2340.522217 1770.533813,2411.662842 1770.533813,2483.333496 
	C1827.612793,2483.333496 1884.060913,2483.333496 1941.149902,2483.333496 
	C1942.881714,2470.881104 1946.512695,2459.180908 1946.121704,2445.556396 
	C1903.934448,2445.556396 1862.494751,2445.556396 1820.760254,2445.556396 
	C1820.760254,2426.795166 1820.760254,2409.317383 1820.760254,2390.434082 
	C1859.095947,2390.434082 1896.844116,2390.434082 1934.795532,2390.434082 
	C1934.795532,2376.923584 1934.795532,2364.838135 1934.795532,2352.090820 
	C1924.675415,2352.090820 1915.376709,2352.090820 1906.077881,2352.090820 
	C1896.415527,2352.090820 1886.753296,2352.090820 1877.090942,2352.090820 
	C1867.761841,2352.090820 1858.431152,2352.195068 1849.103882,2352.061768 
	C1839.619507,2351.926514 1830.066284,2352.683838 1820.884766,2351.572021 
	C1820.884766,2335.770264 1820.884766,2321.278320 1820.884766,2305.807617 
	C1860.782471,2305.807617 1899.946533,2305.807617 1939.518555,2305.807617 
	C1939.518555,2292.716064 1939.518555,2280.640381 1939.518555,2267.661621 
	C1925.532227,2267.661621 1912.265991,2267.661621 1896.999878,2267.661865 
M1317.022949,2483.758789 
	C1322.682739,2483.758789 1328.342651,2483.769775 1334.002441,2483.756348 
	C1344.089478,2483.732910 1344.165771,2483.755859 1347.602417,2474.714844 
	C1352.671509,2461.378906 1357.619019,2447.996826 1362.843140,2434.033447 
	C1390.802490,2434.033447 1418.386841,2434.054443 1445.971191,2434.008789 
	C1449.710571,2434.002686 1451.053711,2436.314941 1452.197021,2439.327148 
	C1454.793823,2446.169189 1457.559692,2452.947998 1460.304932,2459.732910 
	C1463.524780,2467.690430 1466.795654,2475.627197 1469.858643,2483.118652 
	C1488.380737,2483.118652 1505.853516,2483.118652 1524.914062,2483.118652 
	C1496.300171,2410.723877 1468.122070,2339.431641 1440.025757,2268.346191 
	C1417.468262,2268.346191 1395.937866,2268.346191 1374.439087,2268.346191 
	C1373.589233,2269.916992 1372.820190,2271.018799 1372.359497,2272.237061 
	C1346.589233,2340.381348 1320.832764,2408.530762 1295.156982,2476.710449 
	C1294.432495,2478.634521 1294.596191,2480.893066 1294.254761,2483.758545 
	C1301.797607,2483.758545 1308.426270,2483.758545 1317.022949,2483.758789 
M1548.740234,2267.823975 
	C1535.311279,2268.009521 1521.849365,2267.421631 1507.506592,2268.247803 
	C1508.700317,2271.864014 1509.312256,2274.059814 1510.138916,2276.171875 
	C1529.075562,2324.553223 1548.028931,2372.927979 1566.994629,2421.297852 
	C1573.924683,2438.972168 1580.895996,2456.629639 1587.846436,2474.295898 
	C1591.573486,2483.768799 1591.571655,2483.769287 1601.233643,2483.767334 
	C1615.566162,2483.764404 1629.898804,2483.784668 1644.231201,2483.740479 
	C1647.172241,2483.731445 1650.112549,2483.482422 1653.569336,2483.319824 
	C1682.432983,2411.790771 1711.180054,2340.550537 1740.309204,2268.363525 
	C1721.753906,2268.363525 1704.588501,2268.363525 1686.736572,2268.363525 
	C1665.715332,2326.066895 1642.291870,2382.729004 1624.149414,2441.176025 
	C1603.842529,2383.108398 1583.759399,2325.680664 1563.526367,2267.823975 
	C1558.557495,2267.823975 1554.604858,2267.823975 1548.740234,2267.823975 
M943.089600,2483.757812 
	C953.661560,2483.757812 964.233521,2483.757812 975.950562,2483.757812 
	C975.950562,2473.050293 975.950562,2463.483154 975.950562,2453.915771 
	C975.950562,2443.917969 975.950562,2433.920166 975.950562,2423.922363 
	C975.950562,2414.257812 975.950562,2404.593262 975.950562,2394.928711 
	C975.950562,2384.930908 975.950562,2374.933105 975.950562,2364.935303 
	C975.950562,2355.270752 975.851990,2345.604980 975.978027,2335.941895 
	C976.106140,2326.115479 975.381714,2316.224854 976.568176,2305.448242 
	C1001.245056,2305.448242 1024.726685,2305.448242 1048.737671,2305.448242 
	C1048.737671,2292.529297 1048.737671,2280.695068 1048.737671,2268.260742 
	C982.687866,2268.260742 917.222595,2268.260742 851.110474,2268.260742 
	C851.110474,2280.801270 851.110474,2292.900391 851.110474,2306.204834 
	C875.548218,2306.204834 899.348816,2306.204834 924.032104,2306.204834 
	C924.032104,2336.661865 924.032104,2365.920410 924.032104,2395.178955 
	C924.032104,2424.380371 924.032104,2453.582031 924.032104,2483.757324 
	C930.604431,2483.757324 935.864624,2483.757324 943.089600,2483.757812 
M2035.676270,2373.000000 
	C2035.551880,2338.709717 2035.428833,2304.419678 2035.281860,2270.129395 
	C2035.280762,2269.854492 2034.969604,2269.570801 2034.778442,2269.309326 
	C2034.582275,2269.041016 2034.355835,2268.794922 2034.131836,2268.526367 
	C2017.650879,2268.526367 2001.168091,2268.526367 1984.810181,2268.526367 
	C1982.641602,2282.877686 1983.368530,2476.425781 1985.541260,2483.320068 
	C2039.985718,2483.320068 2094.461426,2483.320068 2149.634766,2483.320068 
	C2151.573730,2470.849854 2153.437500,2458.862061 2155.492676,2445.643799 
	C2115.203613,2445.643799 2076.074463,2445.643799 2035.675781,2445.643799 
	C2035.675781,2421.391357 2035.675781,2398.195801 2035.676270,2373.000000 
z"/>
<path fill="#9B848C" opacity="1.000000" stroke="none" 
	d="
M1466.157715,1126.131348 
	C1443.315918,1127.366943 1421.354370,1129.923340 1399.467041,1129.395874 
	C1367.540283,1128.626587 1335.801880,1124.490967 1304.267822,1119.130981 
	C1226.273682,1105.874146 1150.829468,1082.960815 1075.636230,1059.054932 
	C1031.550537,1045.038818 987.588867,1030.593140 943.247375,1017.432373 
	C902.638184,1005.379517 861.002930,998.509399 818.663452,995.404785 
	C783.241089,992.807373 748.128235,994.195679 713.172058,999.939087 
	C689.390015,1003.846558 666.995422,1012.559692 644.544250,1020.957275 
	C634.253967,1024.806274 624.012573,1028.791504 613.664246,1032.477051 
	C609.218018,1034.060547 606.732056,1036.646240 605.320190,1041.337769 
	C593.798645,1079.622681 584.567017,1118.439331 578.052734,1157.876709 
	C569.843323,1207.575684 565.724121,1257.624023 566.023621,1308.017578 
	C566.035217,1309.965698 565.628235,1311.916138 565.269836,1315.212769 
	C551.710388,1316.185059 538.276123,1315.914307 524.094910,1315.423584 
	C523.866089,1311.432251 523.545532,1308.200684 523.514893,1304.966553 
	C522.456726,1193.057983 539.802185,1084.106079 576.947998,978.500610 
	C617.198181,864.069458 677.317078,761.182434 756.867310,669.478882 
	C832.052307,582.807495 920.995789,513.937317 1022.273254,460.497955 
	C1102.425415,418.205383 1187.295776,389.633270 1276.137817,372.633484 
	C1307.835083,366.568237 1339.808838,362.289886 1372.022217,359.593475 
	C1406.262573,356.727448 1440.519165,355.483887 1474.837158,356.241241 
	C1540.584595,357.692169 1605.566406,365.403687 1669.602539,380.690338 
	C1737.565552,396.914429 1803.026733,420.148071 1865.554077,451.301208 
	C1931.999146,484.406250 1994.407715,523.954041 2050.968262,572.182556 
	C2075.028564,592.698608 2098.730957,613.817688 2120.905762,636.327820 
	C2195.463135,712.011780 2254.973145,798.245728 2299.756104,894.714539 
	C2327.907715,955.357422 2349.697266,1018.072388 2364.687256,1083.195435 
	C2372.455566,1116.943848 2378.302734,1151.002319 2382.332764,1185.406982 
	C2385.744873,1214.533203 2388.267090,1243.694702 2388.447266,1273.030396 
	C2388.526611,1285.959106 2388.460449,1298.888550 2388.460449,1311.916504 
	C2382.294189,1314.008179 2354.279785,1314.820557 2338.342041,1313.130249 
	C2338.204102,1309.794189 2337.880127,1306.274780 2337.941895,1302.762329 
	C2338.484375,1272.080200 2336.794434,1241.482788 2333.710938,1210.990845 
	C2328.544678,1159.904907 2318.683350,1109.670288 2305.028809,1060.176514 
	C2277.756348,961.322449 2234.898926,869.752808 2176.354492,785.574097 
	C2097.277832,671.872131 1998.205933,580.012207 1877.082397,512.338196 
	C1838.336914,490.690460 1798.116821,472.224548 1756.559326,456.664124 
	C1753.495483,455.516846 1750.312744,454.686981 1746.030640,453.348785 
	C1742.655029,460.488007 1738.786011,467.086304 1736.309937,474.171478 
	C1722.689087,513.145264 1714.482910,553.246765 1716.439819,594.625183 
	C1717.344971,613.766418 1721.038330,632.908081 1724.939941,651.744507 
	C1730.875122,680.399963 1738.667969,708.670349 1744.621216,737.322632 
	C1752.642822,775.930481 1756.684692,815.072021 1753.642334,854.487427 
	C1748.436890,921.929077 1726.825928,983.135620 1682.779053,1035.589478 
	C1661.721436,1060.666016 1635.672363,1078.552124 1606.020264,1091.667603 
	C1566.719482,1109.050903 1525.454712,1119.024780 1482.919556,1124.173584 
	C1477.637451,1124.812866 1472.354004,1125.440552 1466.157715,1126.131348 
z"/>
<path fill="#FF4D39" opacity="1.000000" stroke="none" 
	d="
M1385.871338,2083.696045 
	C1294.328613,2083.696289 1203.767456,2083.696289 1112.520996,2083.696289 
	C1112.520996,1848.485107 1112.520996,1614.103394 1112.520996,1379.018188 
	C1114.993042,1378.787720 1117.542236,1378.343140 1120.091553,1378.342041 
	C1205.721802,1378.306641 1291.353882,1377.991333 1376.981323,1378.479004 
	C1409.521851,1378.664185 1441.286255,1384.398315 1471.026001,1398.493042 
	C1509.045776,1416.511719 1535.985352,1445.154175 1548.925415,1485.178223 
	C1565.562744,1536.637817 1566.397949,1588.672607 1548.202393,1640.100342 
	C1538.190918,1668.396362 1520.859741,1691.750000 1496.556396,1709.688477 
	C1495.010864,1710.829224 1493.550903,1712.085693 1491.344116,1713.855103 
	C1493.183960,1715.156616 1494.361938,1716.188965 1495.706177,1716.911987 
	C1536.717163,1738.973389 1563.183228,1773.082031 1575.162109,1817.499146 
	C1588.956177,1868.646484 1587.755249,1919.998657 1567.834473,1969.502808 
	C1544.173950,2028.300049 1499.386475,2063.379883 1438.291504,2077.510498 
	C1421.563354,2081.379639 1404.021484,2081.730469 1385.871338,2083.696045 
M1409.542847,1940.816528 
	C1429.194458,1931.096313 1440.645142,1915.142212 1444.463867,1893.802856 
	C1447.478149,1876.958740 1447.516968,1859.948120 1444.222046,1843.143799 
	C1439.098633,1817.014893 1423.225952,1800.449829 1397.460938,1794.255615 
	C1387.200439,1791.788696 1376.411011,1790.616699 1365.843384,1790.494995 
	C1327.871216,1790.058350 1289.890991,1790.308838 1251.913818,1790.351440 
	C1249.364258,1790.354248 1246.815308,1790.788086 1244.197510,1791.027832 
	C1244.197510,1843.931152 1244.197510,1896.122314 1244.197510,1948.827759 
	C1247.219971,1949.061401 1249.806274,1949.433228 1252.392700,1949.435669 
	C1291.369263,1949.472656 1330.346436,1949.584839 1369.322021,1949.393188 
	C1382.724487,1949.327271 1395.829712,1947.037720 1409.542847,1940.816528 
M1243.702148,1589.000000 
	C1243.702148,1613.554321 1243.702148,1638.108521 1243.702148,1663.161255 
	C1247.007324,1663.384521 1249.259521,1663.667236 1251.511963,1663.669312 
	C1283.159668,1663.697632 1314.808105,1663.809448 1346.454346,1663.601440 
	C1354.419922,1663.549072 1362.458862,1662.956055 1370.325195,1661.723999 
	C1394.145630,1657.993286 1412.457520,1646.508179 1419.559570,1622.309082 
	C1426.150024,1599.854004 1426.135010,1576.915405 1420.267334,1554.207642 
	C1415.568115,1536.021362 1403.897705,1523.556763 1386.035034,1518.325928 
	C1374.984863,1515.089966 1363.222290,1513.044434 1351.729370,1512.797241 
	C1318.431519,1512.081177 1285.108154,1512.527222 1251.794800,1512.578125 
	C1249.274292,1512.582031 1246.754639,1513.067017 1243.702026,1513.383545 
	C1243.702026,1538.414062 1243.702026,1562.707031 1243.702148,1589.000000 
z"/>
<path fill="#FF4D39" opacity="1.000000" stroke="none" 
	d="
M1867.927246,1845.698242 
	C1846.363647,1845.698120 1825.789307,1845.698120 1804.370117,1845.698120 
	C1804.370117,1925.196777 1804.370117,2003.704224 1804.370117,2082.952637 
	C1759.418335,2082.952637 1715.319946,2082.952637 1670.543457,2082.952637 
	C1670.543457,1848.458130 1670.543457,1614.068726 1670.543457,1379.015869 
	C1673.101685,1378.781006 1675.655151,1378.342773 1678.208740,1378.341675 
	C1763.510864,1378.306274 1848.819824,1377.656006 1934.112427,1378.557861 
	C1985.609497,1379.102295 2032.520386,1394.377197 2071.416260,1429.728516 
	C2102.530029,1458.006714 2121.500732,1493.540894 2130.676025,1534.088623 
	C2143.224365,1589.540894 2143.214600,1645.184570 2128.106201,1700.212646 
	C2112.884277,1755.654053 2080.651123,1797.909912 2028.526123,1823.896484 
	C2027.337524,1824.489014 2026.155273,1825.114136 2025.049316,1825.844238 
	C2024.522705,1826.191772 2024.183105,1826.822388 2023.175659,1828.015015 
	C2067.000244,1912.377319 2110.980957,1997.040283 2155.616455,2082.963867 
	C2105.528320,2082.963867 2057.116455,2082.963867 2007.442139,2082.963867 
	C1968.299072,2004.515503 1928.797485,1925.348755 1889.054688,1845.698364 
	C1882.178711,1845.698364 1875.547607,1845.698364 1867.927246,1845.698242 
M1912.890259,1708.293701 
	C1916.220093,1708.193115 1919.553589,1708.158203 1922.879395,1707.981934 
	C1961.591309,1705.928955 1987.902222,1684.401855 1996.477295,1646.604248 
	C2001.923462,1622.597656 2001.693604,1598.265869 1995.844116,1574.306519 
	C1988.639160,1544.795410 1970.016479,1526.010010 1940.411743,1518.862671 
	C1932.400269,1516.928589 1923.958008,1516.058350 1915.701782,1515.983643 
	C1881.388306,1515.672485 1847.070557,1515.841309 1812.754272,1515.873535 
	C1810.186768,1515.875977 1807.619507,1516.190186 1804.671143,1516.384766 
	C1804.671143,1580.456787 1804.671143,1643.893433 1804.671143,1708.311401 
	C1840.459106,1708.311401 1875.690430,1708.311401 1912.890259,1708.293701 
z"/>
<path fill="#FF4D39" opacity="1.000000" stroke="none" 
	d="
M2738.675781,2079.063965 
	C2738.643066,2080.971680 2738.617432,2082.937744 2738.064697,2083.099365 
	C2736.200195,2083.644287 2734.148926,2083.676025 2732.168945,2083.677002 
	C2689.512207,2083.700439 2646.855469,2083.696289 2604.198730,2083.678711 
	C2602.886719,2083.677979 2601.574707,2083.478760 2599.023682,2083.270996 
	C2585.825928,2036.216064 2572.555420,1988.902222 2559.122314,1941.009521 
	C2487.118408,1941.009521 2415.298584,1941.009521 2342.558594,1941.009521 
	C2329.316650,1988.231201 2316.048828,2035.545288 2302.694092,2083.169678 
	C2257.510742,2083.169678 2212.982178,2083.169678 2168.556396,2083.169678 
	C2168.297607,2082.710449 2168.124023,2082.445312 2167.994141,2082.160400 
	C2167.856445,2081.858154 2167.609619,2081.504639 2167.668945,2081.229004 
	C2168.225830,2078.632812 2168.690430,2076.004395 2169.455566,2073.467529 
	C2239.224365,1842.126343 2309.016846,1610.792114 2378.955322,1378.968994 
	C2428.172852,1378.968994 2476.982666,1378.968994 2526.572266,1378.968994 
	C2529.766357,1389.359253 2533.011475,1399.785767 2536.178223,1410.236206 
	C2564.847412,1504.848633 2593.516602,1599.461182 2622.159180,1694.081665 
	C2654.659668,1801.446167 2687.131592,1908.819214 2719.619629,2016.187622 
	C2725.884766,2036.892700 2732.166992,2057.593018 2738.675781,2079.063965 
M2503.736328,1741.228516 
	C2486.517822,1679.154907 2469.299072,1617.081421 2452.080322,1555.007812 
	C2442.403076,1583.435059 2434.364746,1611.773560 2426.402832,1640.133423 
	C2418.406494,1668.617065 2410.338623,1697.082153 2402.573975,1725.629150 
	C2394.865234,1753.969482 2386.232910,1782.078857 2379.209229,1810.808594 
	C2396.147217,1812.719360 2514.670654,1812.039551 2522.592529,1809.934448 
	C2516.414062,1787.564453 2510.235107,1765.192383 2503.736328,1741.228516 
z"/>
<path fill="#FF4D39" opacity="1.000000" stroke="none" 
	d="
M448.250122,1593.621582 
	C462.182556,1650.352173 475.967651,1706.269775 489.717834,1762.195801 
	C499.732880,1802.930054 509.690552,1843.678345 519.719177,1884.409180 
	C520.323120,1886.861938 521.328735,1889.215820 523.668030,1891.531250 
	C565.589722,1720.664062 607.511414,1549.796875 649.472229,1378.770264 
	C695.905518,1378.770264 741.425598,1378.770264 788.109009,1378.770264 
	C723.541504,1614.007568 659.172974,1848.519775 594.749146,2083.233398 
	C544.381287,2083.233398 494.856537,2083.233398 444.754913,2083.233398 
	C380.310913,1848.443726 315.945709,1613.941162 251.379318,1378.705566 
	C300.056641,1378.705566 347.300873,1378.705566 395.632172,1378.705566 
	C413.120972,1450.088989 430.604401,1521.450439 448.250122,1593.621582 
z"/>
<path fill="#FF4C38" opacity="1.000000" stroke="none" 
	d="
M992.297607,2057.978027 
	C992.297729,2066.878906 992.297729,2074.783447 992.297729,2083.173828 
	C947.069031,2083.173828 902.930054,2083.173828 858.123047,2083.173828 
	C858.123047,1848.400757 858.123047,1614.035522 858.123047,1378.992432 
	C902.363892,1378.992432 946.509399,1378.992432 990.754456,1378.992432 
	C990.917664,1379.124023 991.216003,1379.300659 991.425171,1379.551636 
	C991.624268,1379.790527 991.858765,1380.106689 991.858948,1380.389160 
	C992.017334,1605.920044 992.157410,1831.451050 992.297607,2057.978027 
z"/>
<path fill="#9D868E" opacity="1.000000" stroke="none" 
	d="
M1247.290527,2386.726807 
	C1257.306763,2396.630127 1261.367676,2408.396729 1262.093506,2421.401855 
	C1262.760986,2433.360840 1262.870361,2445.349854 1263.381470,2457.319092 
	C1263.734497,2465.589111 1264.353027,2473.847900 1264.902588,2482.930664 
	C1249.094849,2482.930664 1233.042358,2482.930664 1215.589478,2482.930664 
	C1214.490234,2476.729492 1212.751465,2470.329590 1212.345093,2463.846191 
	C1211.700073,2453.556885 1211.991699,2443.210693 1211.804565,2432.890137 
	C1211.390991,2410.083496 1205.110840,2401.645508 1182.534912,2399.212158 
	C1166.184570,2397.449707 1149.491211,2398.868164 1131.675171,2398.868164 
	C1131.675171,2412.762207 1131.675171,2426.635986 1131.675171,2440.510010 
	C1131.675171,2454.437744 1131.675171,2468.365479 1131.675171,2483.020508 
	C1114.400269,2483.020508 1097.980713,2483.020508 1080.876709,2483.020508 
	C1080.876709,2411.662109 1080.876709,2340.566650 1080.876709,2268.634277 
	C1083.280396,2268.317627 1085.779419,2267.702148 1088.278320,2267.702393 
	C1123.578247,2267.704590 1158.878662,2267.701172 1194.177856,2267.895020 
	C1210.428955,2267.984375 1225.726196,2271.921143 1240.002563,2279.926270 
	C1277.612427,2301.015381 1275.691772,2355.229248 1242.030029,2374.424072 
	C1240.071045,2375.541016 1238.234375,2376.872314 1235.770264,2378.474609 
	C1239.868042,2381.366455 1243.320312,2383.802734 1247.290527,2386.726807 
M1176.372192,2304.399170 
	C1161.820190,2304.399170 1147.268311,2304.399170 1132.976929,2304.399170 
	C1130.731934,2316.904053 1131.247192,2353.034668 1133.580688,2359.900146 
	C1150.811646,2359.900146 1168.105713,2360.048340 1185.393677,2359.787598 
	C1189.305298,2359.728760 1193.302002,2358.578857 1197.075684,2357.361328 
	C1208.882812,2353.551514 1214.288208,2346.009033 1214.517212,2333.603516 
	C1214.755615,2320.679932 1209.537842,2312.215820 1197.706177,2308.291992 
	C1191.466309,2306.222412 1184.726685,2305.660156 1176.372192,2304.399170 
z"/>
<path fill="#9C858D" opacity="1.000000" stroke="none" 
	d="
M1897.999756,2267.661621 
	C1912.265991,2267.661621 1925.532227,2267.661621 1939.518555,2267.661621 
	C1939.518555,2280.640381 1939.518555,2292.716064 1939.518555,2305.807617 
	C1899.946533,2305.807617 1860.782471,2305.807617 1820.884766,2305.807617 
	C1820.884766,2321.278320 1820.884766,2335.770264 1820.884766,2351.572021 
	C1830.066284,2352.683838 1839.619507,2351.926514 1849.103882,2352.061768 
	C1858.431152,2352.195068 1867.761841,2352.090820 1877.090942,2352.090820 
	C1886.753296,2352.090820 1896.415527,2352.090820 1906.077881,2352.090820 
	C1915.376709,2352.090820 1924.675415,2352.090820 1934.795532,2352.090820 
	C1934.795532,2364.838135 1934.795532,2376.923584 1934.795532,2390.434082 
	C1896.844116,2390.434082 1859.095947,2390.434082 1820.760254,2390.434082 
	C1820.760254,2409.317383 1820.760254,2426.795166 1820.760254,2445.556396 
	C1862.494751,2445.556396 1903.934448,2445.556396 1946.121704,2445.556396 
	C1946.512695,2459.180908 1942.881714,2470.881104 1941.149902,2483.333496 
	C1884.060913,2483.333496 1827.612793,2483.333496 1770.533813,2483.333496 
	C1770.533813,2411.662842 1770.533813,2340.522217 1770.533813,2269.462402 
	C1770.835449,2269.134521 1771.039062,2268.863037 1771.292969,2268.651855 
	C1771.536011,2268.449707 1771.830322,2268.164795 1772.103027,2268.163574 
	C1813.735229,2267.981689 1855.367554,2267.822266 1897.999756,2267.661621 
z"/>
<path fill="#9D868E" opacity="1.000000" stroke="none" 
	d="
M1316.038940,2483.758789 
	C1308.426270,2483.758545 1301.797607,2483.758545 1294.254761,2483.758545 
	C1294.596191,2480.893066 1294.432495,2478.634521 1295.156982,2476.710449 
	C1320.832764,2408.530762 1346.589233,2340.381348 1372.359497,2272.237061 
	C1372.820190,2271.018799 1373.589233,2269.916992 1374.439087,2268.346191 
	C1395.937866,2268.346191 1417.468262,2268.346191 1440.025757,2268.346191 
	C1468.122070,2339.431641 1496.300171,2410.723877 1524.914062,2483.118652 
	C1505.853516,2483.118652 1488.380737,2483.118652 1469.858643,2483.118652 
	C1466.795654,2475.627197 1463.524780,2467.690430 1460.304932,2459.732910 
	C1457.559692,2452.947998 1454.793823,2446.169189 1452.197021,2439.327148 
	C1451.053711,2436.314941 1449.710571,2434.002686 1445.971191,2434.008789 
	C1418.386841,2434.054443 1390.802490,2434.033447 1362.843140,2434.033447 
	C1357.619019,2447.996826 1352.671509,2461.378906 1347.602417,2474.714844 
	C1344.165771,2483.755859 1344.089478,2483.732910 1334.002441,2483.756348 
	C1328.342651,2483.769775 1322.682739,2483.758789 1316.038940,2483.758789 
M1395.100464,2395.856934 
	C1402.096313,2395.856934 1409.092529,2395.893311 1416.088013,2395.846924 
	C1423.215820,2395.799805 1430.343018,2395.671143 1438.633545,2395.562988 
	C1427.231567,2363.960205 1416.397461,2333.931641 1405.215698,2302.939209 
	C1394.631226,2334.425049 1384.487549,2364.599365 1373.979858,2395.856689 
	C1381.229614,2395.856689 1387.189941,2395.856689 1395.100464,2395.856934 
z"/>
<path fill="#9D868E" opacity="1.000000" stroke="none" 
	d="
M1549.696289,2267.823975 
	C1554.604858,2267.823975 1558.557495,2267.823975 1563.526367,2267.823975 
	C1583.759399,2325.680664 1603.842529,2383.108398 1624.149414,2441.176025 
	C1642.291870,2382.729004 1665.715332,2326.066895 1686.736572,2268.363525 
	C1704.588501,2268.363525 1721.753906,2268.363525 1740.309204,2268.363525 
	C1711.180054,2340.550537 1682.432983,2411.790771 1653.569336,2483.319824 
	C1650.112549,2483.482422 1647.172241,2483.731445 1644.231201,2483.740479 
	C1629.898804,2483.784668 1615.566162,2483.764404 1601.233643,2483.767334 
	C1591.571655,2483.769287 1591.573486,2483.768799 1587.846436,2474.295898 
	C1580.895996,2456.629639 1573.924683,2438.972168 1566.994629,2421.297852 
	C1548.028931,2372.927979 1529.075562,2324.553223 1510.138916,2276.171875 
	C1509.312256,2274.059814 1508.700317,2271.864014 1507.506592,2268.247803 
	C1521.849365,2267.421631 1535.311279,2268.009521 1549.696289,2267.823975 
z"/>
<path fill="#9D858E" opacity="1.000000" stroke="none" 
	d="
M942.107239,2483.757568 
	C935.864624,2483.757324 930.604431,2483.757324 924.032104,2483.757324 
	C924.032104,2453.582031 924.032104,2424.380371 924.032104,2395.178955 
	C924.032104,2365.920410 924.032104,2336.661865 924.032104,2306.204834 
	C899.348816,2306.204834 875.548218,2306.204834 851.110474,2306.204834 
	C851.110474,2292.900391 851.110474,2280.801270 851.110474,2268.260742 
	C917.222595,2268.260742 982.687866,2268.260742 1048.737671,2268.260742 
	C1048.737671,2280.695068 1048.737671,2292.529297 1048.737671,2305.448242 
	C1024.726685,2305.448242 1001.245056,2305.448242 976.568176,2305.448242 
	C975.381714,2316.224854 976.106140,2326.115479 975.978027,2335.941895 
	C975.851990,2345.604980 975.950562,2355.270752 975.950562,2364.935303 
	C975.950562,2374.933105 975.950562,2384.930908 975.950562,2394.928711 
	C975.950562,2404.593262 975.950562,2414.257812 975.950562,2423.922363 
	C975.950562,2433.920166 975.950562,2443.917969 975.950562,2453.915771 
	C975.950562,2463.483154 975.950562,2473.050293 975.950562,2483.757812 
	C964.233521,2483.757812 953.661560,2483.757812 942.107239,2483.757568 
z"/>
<path fill="#9D868E" opacity="1.000000" stroke="none" 
	d="
M2035.676025,2374.000000 
	C2035.675781,2398.195801 2035.675781,2421.391357 2035.675781,2445.643799 
	C2076.074463,2445.643799 2115.203613,2445.643799 2155.492676,2445.643799 
	C2153.437500,2458.862061 2151.573730,2470.849854 2149.634766,2483.320068 
	C2094.461426,2483.320068 2039.985718,2483.320068 1985.541260,2483.320068 
	C1983.368530,2476.425781 1982.641602,2282.877686 1984.810181,2268.526367 
	C2001.168091,2268.526367 2017.650879,2268.526367 2034.131836,2268.526367 
	C2034.355835,2268.794922 2034.582275,2269.041016 2034.778442,2269.309326 
	C2034.969604,2269.570801 2035.280762,2269.854492 2035.281860,2270.129395 
	C2035.428833,2304.419678 2035.551880,2338.709717 2035.676025,2374.000000 
z"/>
<path fill="#FFFEFD" opacity="1.000000" stroke="none" 
	d="
M1408.873047,1941.167236 
	C1395.829712,1947.037720 1382.724487,1949.327271 1369.322021,1949.393188 
	C1330.346436,1949.584839 1291.369263,1949.472656 1252.392700,1949.435669 
	C1249.806274,1949.433228 1247.219971,1949.061401 1244.197510,1948.827759 
	C1244.197510,1896.122314 1244.197510,1843.931152 1244.197510,1791.027832 
	C1246.815308,1790.788086 1249.364258,1790.354248 1251.913818,1790.351440 
	C1289.890991,1790.308838 1327.871216,1790.058350 1365.843384,1790.494995 
	C1376.411011,1790.616699 1387.200439,1791.788696 1397.460938,1794.255615 
	C1423.225952,1800.449829 1439.098633,1817.014893 1444.222046,1843.143799 
	C1447.516968,1859.948120 1447.478149,1876.958740 1444.463867,1893.802856 
	C1440.645142,1915.142212 1429.194458,1931.096313 1408.873047,1941.167236 
z"/>
<path fill="#FFFDFD" opacity="1.000000" stroke="none" 
	d="
M1243.702148,1588.000000 
	C1243.702026,1562.707031 1243.702026,1538.414062 1243.702026,1513.383545 
	C1246.754639,1513.067017 1249.274292,1512.582031 1251.794800,1512.578125 
	C1285.108154,1512.527222 1318.431519,1512.081177 1351.729370,1512.797241 
	C1363.222290,1513.044434 1374.984863,1515.089966 1386.035034,1518.325928 
	C1403.897705,1523.556763 1415.568115,1536.021362 1420.267334,1554.207642 
	C1426.135010,1576.915405 1426.150024,1599.854004 1419.559570,1622.309082 
	C1412.457520,1646.508179 1394.145630,1657.993286 1370.325195,1661.723999 
	C1362.458862,1662.956055 1354.419922,1663.549072 1346.454346,1663.601440 
	C1314.808105,1663.809448 1283.159668,1663.697632 1251.511963,1663.669312 
	C1249.259521,1663.667236 1247.007324,1663.384521 1243.702148,1663.161255 
	C1243.702148,1638.108521 1243.702148,1613.554321 1243.702148,1588.000000 
z"/>
<path fill="#FFFEFE" opacity="1.000000" stroke="none" 
	d="
M1911.906006,1708.302490 
	C1875.690430,1708.311401 1840.459106,1708.311401 1804.671143,1708.311401 
	C1804.671143,1643.893433 1804.671143,1580.456787 1804.671143,1516.384766 
	C1807.619507,1516.190186 1810.186768,1515.875977 1812.754272,1515.873535 
	C1847.070557,1515.841309 1881.388306,1515.672485 1915.701782,1515.983643 
	C1923.958008,1516.058350 1932.400269,1516.928589 1940.411743,1518.862671 
	C1970.016479,1526.010010 1988.639160,1544.795410 1995.844116,1574.306519 
	C2001.693604,1598.265869 2001.923462,1622.597656 1996.477295,1646.604248 
	C1987.902222,1684.401855 1961.591309,1705.928955 1922.879395,1707.981934 
	C1919.553589,1708.158203 1916.220093,1708.193115 1911.906006,1708.302490 
z"/>
<path fill="#FFFDFC" opacity="1.000000" stroke="none" 
	d="
M2503.896240,1742.024414 
	C2510.235107,1765.192383 2516.414062,1787.564453 2522.592529,1809.934448 
	C2514.670654,1812.039551 2396.147217,1812.719360 2379.209229,1810.808594 
	C2386.232910,1782.078857 2394.865234,1753.969482 2402.573975,1725.629150 
	C2410.338623,1697.082153 2418.406494,1668.617065 2426.402832,1640.133423 
	C2434.364746,1611.773560 2442.403076,1583.435059 2452.080322,1555.007812 
	C2469.299072,1617.081421 2486.517822,1679.154907 2503.896240,1742.024414 
z"/>
<path fill="#FDFDFD" opacity="1.000000" stroke="none" 
	d="
M1177.292480,2304.408203 
	C1184.726685,2305.660156 1191.466309,2306.222412 1197.706177,2308.291992 
	C1209.537842,2312.215820 1214.755615,2320.679932 1214.517212,2333.603516 
	C1214.288208,2346.009033 1208.882812,2353.551514 1197.075684,2357.361328 
	C1193.302002,2358.578857 1189.305298,2359.728760 1185.393677,2359.787598 
	C1168.105713,2360.048340 1150.811646,2359.900146 1133.580688,2359.900146 
	C1131.247192,2353.034668 1130.731934,2316.904053 1132.976929,2304.399170 
	C1147.268311,2304.399170 1161.820190,2304.399170 1177.292480,2304.408203 
z"/>
<path fill="#FCFBFB" opacity="1.000000" stroke="none" 
	d="
M1394.125366,2395.856934 
	C1387.189941,2395.856689 1381.229614,2395.856689 1373.979858,2395.856689 
	C1384.487549,2364.599365 1394.631226,2334.425049 1405.215698,2302.939209 
	C1416.397461,2333.931641 1427.231567,2363.960205 1438.633545,2395.562988 
	C1430.343018,2395.671143 1423.215820,2395.799805 1416.088013,2395.846924 
	C1409.092529,2395.893311 1402.096313,2395.856934 1394.125366,2395.856934 
z"/>
</svg>